<svg width="34" height="21" viewBox="0 0 34 21" fill="none" xmlns="http://www.w3.org/2000/svg">
<path d="M33.8951 16.4086L31.707 4.01282C31.1234 0.706377 28.138 -0.87727 25.072 0.493765L22.5726 1.61106C19.5054 2.9823 14.4919 2.9823 11.4259 1.61106L8.92655 0.493765C5.86055 -0.87727 2.87517 0.706377 2.29156 4.01282L0.104865 16.4086C-0.478745 19.7151 1.43334 21.0644 4.35527 19.4112L4.50547 19.3269C7.42741 17.6724 12.5641 16.3171 15.9219 16.3171H18.0758C21.4336 16.3171 26.5715 17.6712 29.4935 19.3269L29.6437 19.4112C32.5666 21.0679 34.4787 19.7151 33.8951 16.4086ZM10.9119 11.2889H9.68348V12.5186C9.68348 13.4185 9.13036 14.1573 8.45385 14.1573C7.77733 14.1573 7.22544 13.4198 7.22544 12.5186V11.2889H5.99704C5.09584 11.2889 4.35834 10.7346 4.35834 10.0593C4.35834 9.38401 5.09584 8.82966 5.99704 8.82966H7.22544V7.60002C7.22544 6.70005 7.77856 5.96133 8.45385 5.96133C9.12913 5.96133 9.68348 6.69882 9.68348 7.60002V8.82966H10.9119C11.8131 8.82966 12.5506 9.38401 12.5506 10.0593C12.5506 10.7346 11.8106 11.2889 10.9119 11.2889ZM22.6874 11.2951C22.0038 11.2951 21.4506 10.7419 21.4506 10.0583C21.4506 9.37459 22.0038 8.81902 22.6874 8.81902C23.3711 8.81902 23.9242 9.37459 23.9242 10.0583C23.9242 10.7419 23.3699 11.2951 22.6874 11.2951ZM25.547 14.1546C24.8633 14.1546 24.3102 13.6015 24.3102 12.9178C24.3102 12.2341 24.8633 11.681 25.547 11.681C26.2319 11.681 26.785 12.2341 26.785 12.9178C26.7852 13.6015 26.2308 14.1546 25.547 14.1546ZM25.547 8.43656C24.8633 8.43656 24.3102 7.88344 24.3102 7.19976C24.3102 6.51486 24.8633 5.96174 25.547 5.96174C26.2319 5.96174 26.785 6.51486 26.785 7.19976C26.7852 7.88344 26.2308 8.43656 25.547 8.43656ZM28.4055 11.2951C27.7218 11.2951 27.1687 10.7419 27.1687 10.0583C27.1687 9.37459 27.7218 8.81902 28.4055 8.81902C29.0904 8.81902 29.6435 9.37459 29.6435 10.0583C29.6435 10.7419 29.0891 11.2951 28.4055 11.2951Z" fill="#565656"/>
</svg>
